<svg xmlns="http://www.w3.org/2000/svg" viewBox="0 0 512 512"><title>Fichier 1</title><g id="Calque_2" data-name="Calque 2"><g id="Calque_1-2" data-name="Calque 1"><path d="M240,0h32a28.69,28.69,0,0,0,3.85.82c39.68,3,76.81,14.35,110.74,35.11,66.4,40.65,107.13,99.29,121.48,176,1.74,9.3,2.64,18.74,3.93,28.12v32a29.21,29.21,0,0,0-.83,3.86c-3.38,44.07-17,84.74-41.77,121.32C428.61,457.49,372.3,494.65,300.59,508c-9.45,1.76-19.06,2.67-28.59,4H240a38.71,38.71,0,0,0-4.34-.86c-29.65-2.29-58.21-9.15-85-22C70,450.65,20.79,387.52,3.84,299.62,2.09,290.5,1.26,281.21,0,272V240c.4-3.28.85-6.55,1.21-9.83,6-55.33,27.23-104,64.57-145.32C105.3,41.16,154.2,14,212.39,3.86,221.54,2.27,230.79,1.27,240,0Zm16.37,40C137.36,39.69,40.52,136.09,40,255.37,39.49,374.48,136.23,471.67,255.63,472c119,.32,215.81-96.05,216.36-215.38C472.54,137.5,375.81,40.32,256.37,40Z"/><path d="M352.1,351.67V320.25h31.53v63.43H128.32V320.27h31.45v31.4Z"/><path d="M192,256h47.68V128.36h32.2V255.84h48.19L256,336Z"/></g></g></svg>